<svg id="Réteg_1" data-name="Réteg 1" xmlns="http://www.w3.org/2000/svg" viewBox="0 0 804.52 800.47"><defs><style>.cls-1{fill:#fff;}</style></defs><title>calendar</title><path class="cls-1" d="M855.76,695.79H749.12V619.53a31.53,31.53,0,0,0-31.5-31.5H623.76a31.53,31.53,0,0,0-31.5,31.5v76.26H407.74V619.53a31.53,31.53,0,0,0-31.5-31.5H282.38a31.53,31.53,0,0,0-31.5,31.5v76.26H144.24c-25.64,0-46.5,19.24-46.5,42.88V1342a46.55,46.55,0,0,0,46.5,46.5H855.76a46.55,46.55,0,0,0,46.5-46.5V738.67C902.26,715,881.4,695.79,855.76,695.79Zm13.5,151.26v154H690.61v-154Zm0,334.47H690.61V1021H869.26ZM625.26,621h90.86V778H625.26Zm-341.38,0h90.86V778H283.88Zm13.24,734.47H144.24a13.52,13.52,0,0,1-13.5-13.5V1201.52H297.12Zm0-174H130.74V1021H297.12Zm0-180.49H130.74v-154H297.12ZM490,1355.5H317.12v-154H490Zm0-174H317.12V1021H490ZM490,1001H317.12v-154H490ZM670.61,1355.5H510v-154H670.61Zm0-174H510V1021H670.61Zm0-180.49H510v-154H670.61Zm198.65,341a13.52,13.52,0,0,1-13.5,13.5H690.61v-154H869.26Z" transform="translate(-97.74 -588.03)"/></svg>