<svg id="Réteg_1" data-name="Réteg 1" xmlns="http://www.w3.org/2000/svg" viewBox="0 0 878.51 878.51"><defs><style>.cls-1{fill:#fff;}</style></defs><title>clock</title><path d="M704,2007c-.34,0-.67,0-1,0v0Z" transform="translate(-60.74 -1923.74)"/><path d="M901,2007v0c-.32,0-.65,0-1,0Z" transform="translate(-60.74 -1923.74)"/><path d="M704,2007c-.34,0-.67,0-1,0v0Z" transform="translate(-60.74 -1923.74)"/><path class="cls-1" d="M500,2802.26a438,438,0,1,1,171-34.54A436.48,436.48,0,0,1,500,2802.26Zm0-808.52A369.28,369.28,0,1,0,761.1,2101.9,366.81,366.81,0,0,0,500,1993.74Z" transform="translate(-60.74 -1923.74)"/><polygon class="cls-1" points="464.26 136.07 464.26 464.26 218.21 464.26 218.21 414.26 414.26 414.26 414.26 136.07 464.26 136.07"/></svg>