<svg xmlns="http://www.w3.org/2000/svg" width="347" height="37" viewBox="0 0 347 37"><defs><style>.a{fill:none;}.b,.c{stroke:none;}.c{fill:#fff;}</style></defs><g class="a"><path class="b" d="M5,0H342a5,5,0,0,1,5,5V32a5,5,0,0,1-5,5H5a5,5,0,0,1-5-5V5A5,5,0,0,1,5,0Z"/><path class="c" d="M 5 1 C 2.794403076171875 1 1 2.794410705566406 1 5 L 1 32 C 1 34.20558929443359 2.794403076171875 36 5 36 L 342 36 C 344.2055969238281 36 346 34.20558929443359 346 32 L 346 5 C 346 2.794410705566406 344.2055969238281 1 342 1 L 5 1 M 5 0 L 342 0 C 344.7614135742188 0 347 2.238590240478516 347 5 L 347 32 C 347 34.76140975952148 344.7614135742188 37 342 37 L 5 37 C 2.23858642578125 37 0 34.76140975952148 0 32 L 0 5 C 0 2.238590240478516 2.23858642578125 0 5 0 Z"/></g></svg>