<?xml version="1.0" standalone="no"?>
<!DOCTYPE svg PUBLIC "-//W3C//DTD SVG 20010904//EN"
 "http://www.w3.org/TR/2001/REC-SVG-20010904/DTD/svg10.dtd">
<svg version="1.0" xmlns="http://www.w3.org/2000/svg"
 width="749.000000pt" height="749.000000pt" viewBox="0 0 749.000000 749.000000"
 preserveAspectRatio="xMidYMid meet">
<metadata>
Created by potrace 1.11, written by Peter Selinger 2001-2013
</metadata>
<g transform="translate(0.000000,749.000000) scale(0.100000,-0.100000)"
fill="#000000" stroke="none">
<path d="M3479 7486 c-2 -2 -42 -6 -89 -10 -47 -3 -94 -8 -106 -10 -12 -2 -45
-8 -75 -11 -83 -12 -139 -20 -193 -31 -11 -2 -37 -7 -56 -10 -19 -4 -71 -15
-115 -26 -44 -10 -88 -21 -97 -23 -129 -29 -489 -155 -586 -204 -9 -5 -74 -36
-143 -70 -400 -195 -801 -500 -1079 -821 -36 -41 -67 -77 -70 -80 -47 -42
-276 -385 -375 -561 -166 -292 -316 -666 -381 -949 -4 -19 -8 -37 -9 -40 -2
-9 -29 -125 -30 -130 -7 -31 -16 -83 -20 -115 -4 -22 -8 -47 -10 -55 -2 -8 -7
-42 -11 -75 -3 -33 -8 -68 -9 -77 -25 -132 -26 -749 -1 -873 2 -11 7 -47 10
-80 4 -33 9 -67 11 -75 2 -8 6 -32 9 -52 3 -21 9 -55 12 -75 3 -21 9 -54 14
-73 5 -19 12 -51 15 -70 3 -19 11 -53 16 -75 6 -22 13 -47 14 -55 9 -40 81
-266 112 -350 79 -212 205 -471 303 -625 11 -16 28 -46 39 -66 11 -19 27 -41
35 -48 9 -8 16 -18 16 -23 0 -9 144 -205 189 -258 178 -208 430 -450 616 -591
39 -29 72 -55 75 -58 7 -9 55 -42 172 -119 197 -131 428 -253 653 -345 198
-82 521 -175 695 -202 19 -3 46 -7 60 -10 60 -11 134 -21 225 -30 33 -3 76 -8
95 -10 95 -14 438 -21 560 -10 165 13 201 17 295 31 55 8 114 17 130 20 25 4
246 54 310 70 11 3 27 7 35 9 8 2 16 4 18 5 1 2 5 3 10 4 74 20 266 84 317
106 11 5 70 30 130 55 320 136 684 357 918 555 12 10 42 35 67 55 57 47 227
212 305 296 362 393 637 863 795 1354 36 114 103 372 115 443 6 37 12 74 20
120 11 66 14 88 20 142 3 30 8 71 10 90 21 166 21 582 0 720 -2 14 -7 54 -10
90 -4 36 -8 72 -10 80 -1 8 -6 35 -10 60 -8 51 -12 74 -20 110 -2 14 -7 41
-10 60 -6 34 -48 208 -78 320 -102 376 -349 864 -599 1183 -18 23 -40 50 -48
61 -382 484 -918 900 -1450 1124 -267 112 -608 213 -865 256 -42 7 -242 36
-290 42 -47 5 -591 15 -596 10z m376 -991 c61 -3 124 -7 140 -9 63 -8 181 -28
215 -36 19 -5 46 -11 60 -14 179 -32 493 -153 710 -274 102 -57 326 -199 356
-227 7 -5 24 -19 40 -30 89 -63 172 -145 404 -394 49 -53 153 -191 212 -281
160 -245 315 -631 364 -910 4 -25 8 -47 9 -50 1 -3 5 -30 9 -60 5 -30 10 -64
12 -75 21 -112 21 -417 -1 -546 -2 -13 -6 -40 -9 -60 -3 -19 -9 -46 -14 -59
-9 -23 -9 -22 -16 11 -3 20 -14 44 -24 55 -9 11 -44 51 -77 89 -166 194 -332
370 -652 692 -197 198 -233 225 -315 236 -109 14 -252 -50 -423 -190 -149
-121 -361 -329 -479 -468 -49 -58 -89 -105 -90 -105 -5 0 26 311 39 400 2 14
7 52 11 85 3 33 8 68 10 79 2 10 6 51 10 90 3 39 9 94 13 122 8 55 7 446 -2
479 -2 11 -8 40 -12 65 -11 66 -11 69 -30 140 -9 36 -23 80 -31 98 l-14 34
-76 -7 c-42 -3 -95 -13 -118 -22 -79 -31 -322 -203 -469 -332 -182 -159 -876
-857 -1006 -1011 l-21 -25 5 85 c3 47 7 110 10 140 2 30 7 98 11 150 17 227 9
569 -18 727 l-10 63 -51 15 -51 15 -80 -42 c-143 -73 -345 -209 -464 -312 -15
-13 -52 -45 -82 -71 -155 -133 -211 -182 -300 -262 -19 -17 -46 -41 -60 -53
-28 -24 -186 -170 -271 -250 -30 -28 -101 -97 -157 -153 l-104 -102 6 70 c6
72 33 253 40 264 3 4 7 25 11 48 3 23 21 96 40 162 133 465 370 868 710 1206
66 66 132 129 145 140 235 192 384 288 625 404 202 97 462 187 635 218 14 2
43 8 65 13 22 5 67 12 100 15 33 4 69 9 80 12 11 2 81 7 155 10 74 3 137 7
138 9 2 1 9 1 15 -1 7 -2 62 -6 122 -10z m-349 -2426 c8 -17 18 -41 20 -52 5
-25 5 -257 0 -302 -15 -124 -26 -199 -52 -330 -2 -11 -8 -45 -14 -75 -6 -30
-12 -66 -15 -80 -3 -14 -9 -47 -15 -75 -5 -27 -11 -60 -14 -72 -2 -11 -7 -43
-11 -70 -4 -26 -8 -59 -10 -72 -10 -60 -18 -183 -18 -261 0 -126 9 -199 33
-255 57 -133 47 -122 99 -119 111 6 190 60 345 233 62 69 317 331 567 582 440
442 456 458 532 494 l79 37 61 -32 c73 -38 266 -164 357 -234 119 -90 345
-284 490 -420 30 -28 95 -87 145 -131 49 -44 96 -86 103 -92 11 -11 10 -24 -8
-75 -43 -125 -214 -453 -272 -523 -5 -5 -41 -53 -81 -105 -121 -161 -381 -412
-526 -509 -20 -14 -38 -27 -41 -31 -9 -11 -185 -118 -270 -163 -47 -26 -132
-67 -190 -92 -58 -25 -114 -50 -125 -55 -74 -37 -395 -129 -500 -144 -22 -4
-65 -11 -95 -16 -103 -18 -185 -23 -385 -24 -219 -1 -352 9 -505 39 -182 36
-410 103 -518 151 -127 58 -254 121 -310 155 -35 21 -66 39 -68 39 -13 0 -204
136 -304 216 -419 334 -735 781 -899 1270 -41 124 -106 373 -98 380 7 5 197
149 221 167 97 72 276 212 367 288 92 77 112 89 144 89 l38 0 -7 -77 c-7 -76
-12 -116 -21 -178 -3 -16 -7 -48 -10 -70 -3 -22 -12 -76 -20 -120 -8 -44 -17
-93 -19 -110 -3 -16 -8 -41 -11 -55 -15 -77 -62 -375 -70 -445 -14 -120 -20
-268 -12 -282 3 -5 26 -9 51 -8 38 0 56 9 113 50 37 27 70 52 73 55 3 3 32 27
65 55 174 144 400 374 645 655 46 52 101 115 123 140 22 25 104 122 182 215
192 229 406 437 499 481 l69 33 38 -20 c21 -10 46 -33 55 -50z"/>
</g>
</svg>
